<svg width="29" height="29" viewBox="0 0 29 29" fill="none" xmlns="http://www.w3.org/2000/svg">
<g clip-path="url(#clip0_1_62)">
<path d="M9.83333 22.6667V25" stroke="white" stroke-width="2" stroke-linecap="round" stroke-linejoin="round"/>
<path d="M9.83333 15.6667V18" stroke="white" stroke-width="2" stroke-linecap="round" stroke-linejoin="round"/>
<path d="M19.1667 22.6667V25" stroke="white" stroke-width="2" stroke-linecap="round" stroke-linejoin="round"/>
<path d="M19.1667 15.6667V18" stroke="white" stroke-width="2" stroke-linecap="round" stroke-linejoin="round"/>
<path d="M14.5 25V27.3333" stroke="white" stroke-width="2" stroke-linecap="round" stroke-linejoin="round"/>
<path d="M14.5 18V20.3333" stroke="white" stroke-width="2" stroke-linecap="round" stroke-linejoin="round"/>
<path d="M23.8333 19.8433C25.0598 19.3062 26.0641 18.3635 26.6778 17.1735C27.2914 15.9834 27.477 14.6185 27.2034 13.3079C26.9297 11.9972 26.2136 10.8206 25.1751 9.97548C24.1365 9.13037 22.8389 8.66824 21.5 8.66667H20.03C19.6602 7.23461 18.9553 5.91094 17.9735 4.80477C16.9917 3.6986 15.7611 2.84159 14.3831 2.30439C13.005 1.7672 11.5191 1.56519 10.0476 1.71502C8.5762 1.86485 7.16144 2.36223 5.91998 3.16616C4.67851 3.9701 3.64587 5.05757 2.90719 6.33893C2.1685 7.6203 1.74492 9.05887 1.67135 10.5361C1.59777 12.0133 1.87632 13.4868 2.48404 14.8352C3.09175 16.1837 4.01122 17.3684 5.16667 18.2917" stroke="white" stroke-width="2" stroke-linecap="round" stroke-linejoin="round"/>
</g>
<defs>
<clipPath id="clip0_1_62">
<rect width="28" height="28" fill="white" transform="translate(0.5 0.5)"/>
</clipPath>
</defs>
</svg>
